<svg width="97" height="18" viewBox="0 0 97 18" fill="none" xmlns="http://www.w3.org/2000/svg">
<path d="M3.96245 17.484H0.314453V1.11601H3.96245V17.484Z" fill="black"/>
<path d="M19.2872 17.484H12.9032C8.0792 17.484 6.6632 15.996 6.6632 11.868V6.73201C6.6632 2.60401 8.0792 1.11601 12.9032 1.11601H19.2872C24.1352 1.11601 25.5512 2.60401 25.5512 6.73201V11.868C25.5512 15.996 24.1352 17.484 19.2872 17.484ZM21.9032 11.724V6.90001C21.9032 4.86001 21.2792 4.26001 19.1432 4.26001H13.0712C10.7672 4.26001 10.2872 4.86001 10.2872 6.90001V11.724C10.2872 13.86 10.7672 14.364 13.0712 14.364H19.1432C21.2792 14.364 21.9032 13.86 21.9032 11.724Z" fill="black"/>
<path d="M40.756 17.484H34.372C29.548 17.484 28.132 15.996 28.132 11.868V6.73201C28.132 2.60401 29.548 1.11601 34.372 1.11601H40.756C45.604 1.11601 47.02 2.60401 47.02 6.73201V11.868C47.02 15.996 45.604 17.484 40.756 17.484ZM43.372 11.724V6.90001C43.372 4.86001 42.748 4.26001 40.612 4.26001H34.54C32.236 4.26001 31.756 4.86001 31.756 6.90001V11.724C31.756 13.86 32.236 14.364 34.54 14.364H40.612C42.748 14.364 43.372 13.86 43.372 11.724Z" fill="black"/>
<path d="M71.7752 1.11601L62.3192 16.284C61.7192 17.268 61.0472 17.844 59.6312 17.844C58.1912 17.844 57.5432 17.268 56.9432 16.284L47.5352 1.11601H51.9512L59.7032 13.764L67.4312 1.11601H71.7752Z" fill="black"/>
<path d="M77.0406 17.484H73.3926V4.81201H77.0406V17.484ZM75.7926 3.73201H74.6166C73.7286 3.73201 73.3926 3.39601 73.3926 2.62801V1.23601C73.3926 0.468006 73.7286 0.156006 74.6166 0.156006H75.7926C76.7046 0.156006 77.0406 0.468006 77.0406 1.23601V2.62801C77.0406 3.39601 76.7046 3.73201 75.7926 3.73201Z" fill="black"/>
<path d="M96.6853 12.3H83.3173V12.9C83.3173 14.484 83.7973 14.772 85.4773 14.772H89.7013V17.484H85.4773C81.3493 17.484 79.7413 15.996 79.7413 12.54V9.54001C79.7413 5.74801 81.0613 4.47601 85.6453 4.47601H91.9333C95.6533 4.47601 96.6853 5.96401 96.6853 8.02801V12.3ZM93.1093 9.99601V8.31601C93.1093 7.45201 92.7253 7.23601 91.6453 7.23601H85.6933C83.8933 7.23601 83.3173 7.42801 83.3173 9.30001V9.99601H93.1093Z" fill="black"/>
</svg>
