<svg width="145" height="18" viewBox="0 0 145 18" fill="none" xmlns="http://www.w3.org/2000/svg">
<path d="M3.648 17.328H0V0.960001H3.648V17.328Z" fill="black"/>
<path d="M18.9728 17.328H12.5887C7.76475 17.328 6.34875 15.84 6.34875 11.712V6.576C6.34875 2.448 7.76475 0.960001 12.5887 0.960001H18.9728C23.8208 0.960001 25.2367 2.448 25.2367 6.576V11.712C25.2367 15.84 23.8208 17.328 18.9728 17.328ZM21.5888 11.568V6.744C21.5888 4.704 20.9648 4.104 18.8288 4.104H12.7568C10.4528 4.104 9.97275 4.704 9.97275 6.744V11.568C9.97275 13.704 10.4528 14.208 12.7568 14.208H18.8288C20.9648 14.208 21.5888 13.704 21.5888 11.568Z" fill="black"/>
<path d="M40.4415 17.328H34.0575C29.2335 17.328 27.8175 15.84 27.8175 11.712V6.576C27.8175 2.448 29.2335 0.960001 34.0575 0.960001H40.4415C45.2895 0.960001 46.7055 2.448 46.7055 6.576V11.712C46.7055 15.84 45.2895 17.328 40.4415 17.328ZM43.0575 11.568V6.744C43.0575 4.704 42.4335 4.104 40.2975 4.104H34.2255C31.9215 4.104 31.4415 4.704 31.4415 6.744V11.568C31.4415 13.704 31.9215 14.208 34.2255 14.208H40.2975C42.4335 14.208 43.0575 13.704 43.0575 11.568Z" fill="black"/>
<path d="M71.4608 0.960001L62.0047 16.128C61.4047 17.112 60.7327 17.688 59.3167 17.688C57.8767 17.688 57.2287 17.112 56.6287 16.128L47.2207 0.960001H51.6367L59.3887 13.608L67.1168 0.960001H71.4608Z" fill="black"/>
<path d="M76.7261 17.328H73.0781V4.656H76.7261V17.328ZM75.4781 3.576H74.3021C73.4141 3.576 73.0781 3.24 73.0781 2.472V1.08C73.0781 0.312 73.4141 0 74.3021 0H75.4781C76.3901 0 76.7261 0.312 76.7261 1.08V2.472C76.7261 3.24 76.3901 3.576 75.4781 3.576Z" fill="black"/>
<path d="M96.3709 12.144H83.0029V12.744C83.0029 14.328 83.4829 14.616 85.1629 14.616H89.3869V17.328H85.1629C81.0349 17.328 79.4269 15.84 79.4269 12.384V9.384C79.4269 5.592 80.7469 4.32 85.3309 4.32H91.6189C95.3389 4.32 96.3709 5.808 96.3709 7.872V12.144ZM92.7949 9.84V8.16C92.7949 7.296 92.4109 7.08 91.3309 7.08H85.3789C83.5789 7.08 83.0029 7.272 83.0029 9.144V9.84H92.7949Z" fill="black"/>
<path d="M105.263 17.6879H101.747C99.8751 17.6879 99.3711 17.0279 99.3711 15.9719V15.3599C99.3711 14.2679 99.8271 13.6439 101.627 13.6439H106.439V13.4999C106.439 12.6719 106.127 12.4559 105.335 12.4559H103.559V11.1839H105.335C107.411 11.1839 108.227 11.9279 108.227 13.5839V15.1679C108.227 17.0519 107.567 17.6879 105.263 17.6879ZM106.439 15.2999V14.7479H101.819C101.399 14.7479 101.147 14.8919 101.147 15.4079V15.8519C101.147 16.3079 101.423 16.4639 101.879 16.4639H105.239C106.079 16.4639 106.439 16.2719 106.439 15.2999Z" fill="#C71F3F"/>
<path d="M114.922 17.6879H112.654C110.218 17.6879 109.51 16.9439 109.51 14.8799V14.0039C109.51 11.9279 110.218 11.1839 112.654 11.1839H116.266V9.08393H118.054V14.8799C118.054 16.9439 117.346 17.6879 114.922 17.6879ZM111.298 14.0639V14.8319C111.298 15.9719 111.61 16.1759 112.882 16.1759H114.874C116.002 16.1759 116.266 15.9239 116.266 14.8439V12.7199H112.87C111.61 12.7199 111.298 12.8999 111.298 14.0639Z" fill="#C71F3F"/>
<path d="M131.413 17.6879H129.661V13.7759C129.661 12.9719 129.361 12.7199 128.677 12.7199H127.513C126.445 12.7199 126.181 12.9839 126.181 13.7759V17.6879H124.609V13.7759C124.609 12.9839 124.369 12.7199 123.265 12.7199H122.125C121.417 12.7199 121.141 12.9719 121.141 13.7759V17.6879H119.401V13.5119C119.401 11.9159 120.013 11.1839 121.729 11.1839H123.301C124.621 11.1839 125.149 11.5559 125.389 12.3239C125.617 11.5559 126.181 11.1839 127.465 11.1839H129.085C130.801 11.1839 131.413 11.9159 131.413 13.5119V17.6879Z" fill="#C71F3F"/>
<path d="M134.621 17.6879H132.797V11.3519H134.621V17.6879ZM133.997 10.8119H133.409C132.965 10.8119 132.797 10.6439 132.797 10.2599V9.56393C132.797 9.17993 132.965 9.02393 133.409 9.02393H133.997C134.453 9.02393 134.621 9.17993 134.621 9.56393V10.2599C134.621 10.6439 134.453 10.8119 133.997 10.8119Z" fill="#C71F3F"/>
<path d="M144.419 17.6879H142.631V14.0639C142.631 12.9839 142.331 12.7199 141.179 12.7199H139.235C138.107 12.7199 137.783 12.9839 137.783 14.0639V17.6879H135.995V14.0039C135.995 11.9279 136.703 11.1839 139.115 11.1839H141.287C143.711 11.1839 144.419 11.9279 144.419 14.0039V17.6879Z" fill="#C71F3F"/>
</svg>
